# xmcd CD database file
#
# Track frame offsets:
#	150
#	16830
#	39446
#	64451
#	92209
#	125081
#	152308
#	175903
#	198187
#	213950
#
# Disc length: 3219 seconds
#
# Revision: 0
# Processed by: cddbd v1.5.1PL2 Copyright (c) Steve Scherf et al.
# Submitted via: CDex 1.51
#
DISCID=800c910a
DTITLE=Musicmusicmusic - What´s a good boss anyway
DYEAR=2005
DGENRE=Jazz
TTITLE0=Iron Square Serenade
TTITLE1=Confirmation
TTITLE2=Satoshi
TTITLE3=Music Everyday
TTITLE4=Vägföreningen
TTITLE5=Countdown
TTITLE6=How my heart sings
TTITLE7=Suite for the oriental rulers part 3 Xerxes
TTITLE8=Looksound
TTITLE9=What a wonderful world
EXTD=YEAR: 2005
EXTT0=
EXTT1=
EXTT2=
EXTT3=
EXTT4=
EXTT5=
EXTT6=
EXTT7=
EXTT8=
EXTT9=
PLAYORDER=
